PathFileType	4	(X/Y/Z)	C:\Users\86182\Documents\cortex\Trimmed_M3_H15.trc
DataRate	CameraRate	NumFrames	NumMarkers	Units	OrigDataRate	OrigDataStartFrame	OrigNumFrames
100.00	100.00	       87	2	mm	100.00	1	       901
Frame#	Time	gripper			box			
		X1	Y1	Z1	X2	Y2	Z2	

1	0.000	268.24564	172.45760	192.36642	269.62451	169.50421	57.08184	
2	0.010	268.24612	172.45755	192.36697	269.62454	169.50421	57.08184	
3	0.020	268.24664	172.45766	192.36697	269.62454	169.50421	57.08185	
4	0.030	268.24713	172.45790	192.36641	269.62454	169.50421	57.08186	
5	0.040	268.24756	172.45828	192.36537	269.62454	169.50421	57.08186	
6	0.050	268.24786	172.45868	192.36414	269.62454	169.50421	57.08186	
7	0.060	268.24808	172.45898	192.36320	269.62454	169.50421	57.08186	
8	0.070	268.24838	172.45911	192.36295	269.62454	169.50421	57.08186	
9	0.080	268.24887	172.45911	192.36334	269.62454	169.50421	57.08185	
10	0.090	268.24936	172.45898	192.36415	269.62451	169.50421	57.08184	
11	0.100	268.24960	172.45879	192.36504	269.62451	169.50421	57.08184	
12	0.110	268.24939	172.45854	192.36580	269.62451	169.50421	57.08183	
13	0.120	268.24887	172.45827	192.36639	269.62451	169.50421	57.08183	
14	0.130	268.24832	172.45802	192.36690	269.62451	169.50421	57.08183	
15	0.140	268.24799	172.45787	192.36719	269.62454	169.50421	57.08184	
16	0.150	268.24774	172.45787	192.36697	269.62460	169.50421	57.08187	
17	0.160	268.24725	172.45804	192.36603	269.62473	169.50421	57.08192	
18	0.170	268.24637	172.45833	192.36432	269.62488	169.50420	57.08200	
19	0.180	268.24496	172.45865	192.36214	269.62506	169.50420	57.08209	
20	0.190	268.24335	172.45894	192.35988	269.62527	169.50420	57.08218	
21	0.200	268.24185	172.45917	192.35797	269.62546	169.50420	57.08227	
22	0.210	268.24088	172.45927	192.35683	269.62552	169.50420	57.08230	
23	0.220	268.24066	172.45926	192.35672	269.62546	169.50420	57.08227	
24	0.230	268.24097	172.45915	192.35733	269.62527	169.50420	57.08219	
25	0.240	268.24127	172.45908	192.35782	269.62506	169.50420	57.08210	
26	0.250	268.24106	172.45915	192.35741	269.62488	169.50421	57.08201	
27	0.260	268.24023	172.45935	192.35606	269.62473	169.50421	57.08194	
28	0.270	268.23917	172.45959	192.35439	269.62460	169.50421	57.08189	
29	0.280	268.23853	172.45981	192.35320	269.62454	169.50421	57.08186	
30	0.290	268.23874	172.45988	192.35309	269.62451	169.50421	57.08184	
31	0.300	268.23990	172.45978	192.35431	269.62448	169.50421	57.08183	
32	0.310	268.24179	172.45949	192.35674	269.62448	169.50421	57.08183	
33	0.320	268.24405	172.45912	192.35976	269.62448	169.50421	57.08182	
34	0.330	268.24628	172.45882	192.36250	269.62448	169.50421	57.08182	
35	0.340	268.24805	172.45865	192.36443	269.62448	169.50421	57.08182	
36	0.350	268.24915	172.45859	192.36543	269.62445	169.50421	57.08181	
37	0.360	268.24957	172.45857	192.36580	269.62448	169.50421	57.08181	
38	0.370	268.24942	172.45856	192.36575	269.62448	169.50421	57.08183	
39	0.380	268.24878	172.45853	192.36536	269.62454	169.50421	57.08185	
40	0.390	268.24774	172.45856	192.36452	269.62463	169.50421	57.08189	
41	0.400	268.24646	172.45866	192.36320	269.62482	169.50421	57.08197	
42	0.410	268.24515	172.45885	192.36157	269.62503	169.50420	57.08208	
43	0.420	268.24396	172.45903	192.35999	269.62534	169.50420	57.08221	
44	0.430	268.24304	172.45911	192.35905	269.62564	169.50418	57.08236	
45	0.440	268.24255	172.45897	192.35921	269.62592	169.50418	57.08247	
46	0.450	268.24258	172.45862	192.36053	269.62601	169.50418	57.08252	
47	0.460	268.24316	172.45815	192.36270	269.62592	169.50418	57.08247	
48	0.470	268.24423	172.45763	192.36537	269.62564	169.50418	57.08235	
49	0.480	268.24579	172.45714	192.36824	269.62534	169.50420	57.08221	
50	0.490	268.24765	172.45677	192.37096	269.62503	169.50420	57.08207	
51	0.500	268.24963	172.45659	192.37308	269.62482	169.50421	57.08197	
52	0.510	268.25131	172.45663	192.37413	269.62463	169.50421	57.08189	
53	0.520	268.25232	172.45695	192.37369	269.62454	169.50421	57.08185	
54	0.530	268.25232	172.45750	192.37172	269.62448	169.50421	57.08183	
55	0.540	268.25131	172.45810	192.36876	269.62448	169.50421	57.08182	
56	0.550	268.24948	172.45862	192.36557	269.62448	169.50421	57.08182	
57	0.560	268.24722	172.45895	192.36269	269.62448	169.50421	57.08183	
58	0.570	268.24493	172.45918	192.36017	269.62451	169.50421	57.08183	
59	0.580	268.24286	172.45938	192.35788	269.62451	169.50421	57.08184	
60	0.590	268.24112	172.45959	192.35585	269.62454	169.50421	57.08184	
61	0.600	268.23969	172.45976	192.35417	269.62454	169.50421	57.08185	
62	0.610	268.23837	172.45987	192.35281	269.62454	169.50421	57.08185	
63	0.620	268.23709	172.45995	192.35159	269.62454	169.50421	57.08185	
64	0.630	268.23581	172.46002	192.35040	269.62454	169.50421	57.08185	
65	0.640	268.23453	172.46010	192.34915	269.62454	169.50421	57.08184	
66	0.650	268.23325	172.46016	192.34799	269.62454	169.50421	57.08184	
67	0.660	268.23233	172.46017	192.34732	269.62454	169.50421	57.08184	
68	0.670	268.23224	172.46004	192.34775	269.62454	169.50421	57.08184	
69	0.680	268.23325	172.45970	192.34970	269.62454	169.50421	57.08184	
70	0.690	268.23529	172.45920	192.35301	269.62454	169.50421	57.08184	
71	0.700	268.23795	172.45863	192.35706	269.62454	169.50421	57.08184	
72	0.710	268.24078	172.45810	192.36105	269.62454	169.50421	57.08185	
73	0.720	268.24341	172.45769	192.36450	269.62454	169.50421	57.08185	
74	0.730	268.24551	172.45738	192.36713	269.62454	169.50421	57.08185	
75	0.740	268.24683	172.45721	192.36868	269.62454	169.50421	57.08185	
76	0.750	268.24704	172.45717	192.36903	269.62454	169.50421	57.08185	
77	0.760	268.24622	172.45721	192.36826	269.62454	169.50421	57.08185	
78	0.770	268.24472	172.45731	192.36679	269.62454	169.50421	57.08186	
79	0.780	268.24304	172.45743	192.36511	269.62454	169.50421	57.08185	
80	0.790	268.24149	172.45757	192.36349	269.62454	169.50421	57.08185	
81	0.800	268.24023	172.45769	192.36212	269.62454	169.50421	57.08185	
82	0.810	268.23956	172.45779	192.36121	269.62454	169.50421	57.08184	
83	0.820	268.23950	172.45789	192.36084	269.62454	169.50421	57.08184	
84	0.830	268.24002	172.45798	192.36090	269.62454	169.50421	57.08185	
85	0.840	268.24094	172.45808	192.36118	269.62454	169.50421	57.08185	
86	0.850	268.24191	172.45824	192.36131	269.62454	169.50421	57.08185	
87	0.860	268.24277	172.45845	192.36119	269.62454	169.50421	57.08185	
